<mxfile host="app.diagrams.net" agent="Mozilla/5.0 (Windows NT 10.0; Win64; x64) AppleWebKit/537.36 (KHTML, like Gecko) Chrome/138.0.0.0 Safari/537.36" version="28.0.7">
  <diagram name="Страница — 1" id="1tB0Kznd3mkGn6875xZd">
    <mxGraphModel dx="4526" dy="733" grid="1" gridSize="10" guides="1" tooltips="1" connect="1" arrows="1" fold="1" page="1" pageScale="1" pageWidth="3300" pageHeight="4681" math="0" shadow="0">
      <root>
        <mxCell id="0" />
        <mxCell id="1" parent="0" />
        <mxCell id="DCITLNQzlGKikIkjDxra-32" value="" style="rounded=1;whiteSpace=wrap;html=1;" vertex="1" parent="1">
          <mxGeometry x="60" y="720" width="500" height="290" as="geometry" />
        </mxCell>
        <mxCell id="DCITLNQzlGKikIkjDxra-4" style="edgeStyle=orthogonalEdgeStyle;rounded=0;orthogonalLoop=1;jettySize=auto;html=1;entryX=0.5;entryY=0;entryDx=0;entryDy=0;" edge="1" parent="1" source="DCITLNQzlGKikIkjDxra-1" target="DCITLNQzlGKikIkjDxra-3">
          <mxGeometry relative="1" as="geometry" />
        </mxCell>
        <mxCell id="DCITLNQzlGKikIkjDxra-6" value="&lt;b&gt;REST&lt;/b&gt;" style="edgeLabel;html=1;align=center;verticalAlign=middle;resizable=0;points=[];" vertex="1" connectable="0" parent="DCITLNQzlGKikIkjDxra-4">
          <mxGeometry x="-0.0857" y="-3" relative="1" as="geometry">
            <mxPoint as="offset" />
          </mxGeometry>
        </mxCell>
        <mxCell id="DCITLNQzlGKikIkjDxra-1" value="User" style="rounded=1;whiteSpace=wrap;html=1;" vertex="1" parent="1">
          <mxGeometry x="120" y="40" width="120" height="60" as="geometry" />
        </mxCell>
        <mxCell id="DCITLNQzlGKikIkjDxra-8" style="edgeStyle=orthogonalEdgeStyle;rounded=0;orthogonalLoop=1;jettySize=auto;html=1;entryX=0.5;entryY=0;entryDx=0;entryDy=0;" edge="1" parent="1" source="DCITLNQzlGKikIkjDxra-2" target="DCITLNQzlGKikIkjDxra-7">
          <mxGeometry relative="1" as="geometry" />
        </mxCell>
        <mxCell id="DCITLNQzlGKikIkjDxra-11" style="edgeStyle=orthogonalEdgeStyle;rounded=0;orthogonalLoop=1;jettySize=auto;html=1;entryX=0.5;entryY=0;entryDx=0;entryDy=0;" edge="1" parent="1" source="DCITLNQzlGKikIkjDxra-2" target="DCITLNQzlGKikIkjDxra-10">
          <mxGeometry relative="1" as="geometry" />
        </mxCell>
        <mxCell id="DCITLNQzlGKikIkjDxra-2" value="API Gateway" style="rounded=0;whiteSpace=wrap;html=1;" vertex="1" parent="1">
          <mxGeometry x="120" y="300" width="120" height="60" as="geometry" />
        </mxCell>
        <mxCell id="DCITLNQzlGKikIkjDxra-5" style="edgeStyle=orthogonalEdgeStyle;rounded=0;orthogonalLoop=1;jettySize=auto;html=1;entryX=0.5;entryY=0;entryDx=0;entryDy=0;" edge="1" parent="1" source="DCITLNQzlGKikIkjDxra-3" target="DCITLNQzlGKikIkjDxra-2">
          <mxGeometry relative="1" as="geometry" />
        </mxCell>
        <mxCell id="DCITLNQzlGKikIkjDxra-3" value="Balancer&lt;div&gt;&lt;strong data-end=&quot;1242&quot; data-start=&quot;1223&quot;&gt;NGINX / HAProxy&lt;/strong&gt;&lt;/div&gt;" style="rounded=0;whiteSpace=wrap;html=1;" vertex="1" parent="1">
          <mxGeometry x="120" y="170" width="120" height="60" as="geometry" />
        </mxCell>
        <mxCell id="DCITLNQzlGKikIkjDxra-14" style="edgeStyle=orthogonalEdgeStyle;rounded=0;orthogonalLoop=1;jettySize=auto;html=1;entryX=0.5;entryY=0;entryDx=0;entryDy=0;" edge="1" parent="1" source="DCITLNQzlGKikIkjDxra-7" target="DCITLNQzlGKikIkjDxra-13">
          <mxGeometry relative="1" as="geometry" />
        </mxCell>
        <mxCell id="DCITLNQzlGKikIkjDxra-15" value="JWT, OAuth" style="edgeLabel;html=1;align=center;verticalAlign=middle;resizable=0;points=[];" vertex="1" connectable="0" parent="DCITLNQzlGKikIkjDxra-14">
          <mxGeometry x="-0.2167" y="2" relative="1" as="geometry">
            <mxPoint y="1" as="offset" />
          </mxGeometry>
        </mxCell>
        <mxCell id="DCITLNQzlGKikIkjDxra-31" style="edgeStyle=orthogonalEdgeStyle;rounded=0;orthogonalLoop=1;jettySize=auto;html=1;entryX=1;entryY=0.5;entryDx=0;entryDy=0;" edge="1" parent="1" source="DCITLNQzlGKikIkjDxra-7" target="DCITLNQzlGKikIkjDxra-30">
          <mxGeometry relative="1" as="geometry" />
        </mxCell>
        <mxCell id="DCITLNQzlGKikIkjDxra-7" value="Authentication Svc" style="rounded=0;whiteSpace=wrap;html=1;" vertex="1" parent="1">
          <mxGeometry x="-80" y="440" width="120" height="60" as="geometry" />
        </mxCell>
        <mxCell id="DCITLNQzlGKikIkjDxra-10" value="Rate Limiter" style="rounded=0;whiteSpace=wrap;html=1;" vertex="1" parent="1">
          <mxGeometry x="320" y="400" width="120" height="60" as="geometry" />
        </mxCell>
        <mxCell id="DCITLNQzlGKikIkjDxra-17" style="edgeStyle=orthogonalEdgeStyle;rounded=0;orthogonalLoop=1;jettySize=auto;html=1;entryX=0.5;entryY=0;entryDx=0;entryDy=0;" edge="1" parent="1" source="DCITLNQzlGKikIkjDxra-13" target="DCITLNQzlGKikIkjDxra-16">
          <mxGeometry relative="1" as="geometry" />
        </mxCell>
        <mxCell id="DCITLNQzlGKikIkjDxra-18" value="HTML/CSS/JS через CDN" style="edgeLabel;html=1;align=center;verticalAlign=middle;resizable=0;points=[];" vertex="1" connectable="0" parent="DCITLNQzlGKikIkjDxra-17">
          <mxGeometry x="0.0571" relative="1" as="geometry">
            <mxPoint as="offset" />
          </mxGeometry>
        </mxCell>
        <mxCell id="DCITLNQzlGKikIkjDxra-13" value="CDN&amp;nbsp;&lt;div&gt;(для UI/статических данных)&lt;/div&gt;" style="rounded=0;whiteSpace=wrap;html=1;" vertex="1" parent="1">
          <mxGeometry x="-80" y="560" width="120" height="60" as="geometry" />
        </mxCell>
        <mxCell id="DCITLNQzlGKikIkjDxra-16" value="Front UI" style="rounded=0;whiteSpace=wrap;html=1;" vertex="1" parent="1">
          <mxGeometry x="-80" y="680" width="120" height="60" as="geometry" />
        </mxCell>
        <mxCell id="DCITLNQzlGKikIkjDxra-20" style="edgeStyle=orthogonalEdgeStyle;rounded=0;orthogonalLoop=1;jettySize=auto;html=1;entryX=0.5;entryY=1;entryDx=0;entryDy=0;" edge="1" parent="1" source="DCITLNQzlGKikIkjDxra-19" target="DCITLNQzlGKikIkjDxra-2">
          <mxGeometry relative="1" as="geometry" />
        </mxCell>
        <mxCell id="DCITLNQzlGKikIkjDxra-24" style="edgeStyle=orthogonalEdgeStyle;rounded=0;orthogonalLoop=1;jettySize=auto;html=1;entryX=0.5;entryY=0;entryDx=0;entryDy=0;" edge="1" parent="1" source="DCITLNQzlGKikIkjDxra-19" target="DCITLNQzlGKikIkjDxra-23">
          <mxGeometry relative="1" as="geometry">
            <Array as="points">
              <mxPoint x="500" y="550" />
            </Array>
          </mxGeometry>
        </mxCell>
        <mxCell id="DCITLNQzlGKikIkjDxra-19" value="Notification Service" style="rounded=0;whiteSpace=wrap;html=1;" vertex="1" parent="1">
          <mxGeometry x="320" y="520" width="120" height="60" as="geometry" />
        </mxCell>
        <mxCell id="DCITLNQzlGKikIkjDxra-22" style="edgeStyle=orthogonalEdgeStyle;rounded=0;orthogonalLoop=1;jettySize=auto;html=1;entryX=0.5;entryY=1;entryDx=0;entryDy=0;startArrow=classic;startFill=1;" edge="1" parent="1" source="DCITLNQzlGKikIkjDxra-21" target="DCITLNQzlGKikIkjDxra-19">
          <mxGeometry relative="1" as="geometry" />
        </mxCell>
        <mxCell id="DCITLNQzlGKikIkjDxra-40" style="edgeStyle=orthogonalEdgeStyle;rounded=0;orthogonalLoop=1;jettySize=auto;html=1;entryX=0.5;entryY=0;entryDx=0;entryDy=0;" edge="1" parent="1" source="DCITLNQzlGKikIkjDxra-21" target="DCITLNQzlGKikIkjDxra-32">
          <mxGeometry relative="1" as="geometry" />
        </mxCell>
        <mxCell id="DCITLNQzlGKikIkjDxra-21" value="Request Service" style="rounded=0;whiteSpace=wrap;html=1;" vertex="1" parent="1">
          <mxGeometry x="120" y="580" width="120" height="60" as="geometry" />
        </mxCell>
        <mxCell id="DCITLNQzlGKikIkjDxra-23" value="Notification Workers" style="rounded=0;whiteSpace=wrap;html=1;" vertex="1" parent="1">
          <mxGeometry x="440" y="640" width="120" height="60" as="geometry" />
        </mxCell>
        <mxCell id="DCITLNQzlGKikIkjDxra-39" style="edgeStyle=orthogonalEdgeStyle;rounded=0;orthogonalLoop=1;jettySize=auto;html=1;entryX=1;entryY=0.5;entryDx=0;entryDy=0;" edge="1" parent="1" source="DCITLNQzlGKikIkjDxra-25" target="DCITLNQzlGKikIkjDxra-23">
          <mxGeometry relative="1" as="geometry">
            <Array as="points">
              <mxPoint x="660" y="860" />
              <mxPoint x="660" y="670" />
            </Array>
          </mxGeometry>
        </mxCell>
        <mxCell id="DCITLNQzlGKikIkjDxra-41" value="Kafka" style="edgeLabel;html=1;align=center;verticalAlign=middle;resizable=0;points=[];" vertex="1" connectable="0" parent="DCITLNQzlGKikIkjDxra-39">
          <mxGeometry x="0.0107" relative="1" as="geometry">
            <mxPoint as="offset" />
          </mxGeometry>
        </mxCell>
        <mxCell id="DCITLNQzlGKikIkjDxra-25" value="Request DB (Write)&amp;nbsp;" style="rounded=0;whiteSpace=wrap;html=1;" vertex="1" parent="1">
          <mxGeometry x="370" y="830" width="120" height="60" as="geometry" />
        </mxCell>
        <mxCell id="DCITLNQzlGKikIkjDxra-26" value="Read DB / Redis" style="rounded=0;whiteSpace=wrap;html=1;" vertex="1" parent="1">
          <mxGeometry x="120" y="830" width="120" height="60" as="geometry" />
        </mxCell>
        <mxCell id="DCITLNQzlGKikIkjDxra-29" style="edgeStyle=orthogonalEdgeStyle;rounded=0;orthogonalLoop=1;jettySize=auto;html=1;entryX=0;entryY=0.5;entryDx=0;entryDy=0;startArrow=classic;startFill=1;" edge="1" parent="1" source="DCITLNQzlGKikIkjDxra-27" target="DCITLNQzlGKikIkjDxra-28">
          <mxGeometry relative="1" as="geometry" />
        </mxCell>
        <mxCell id="DCITLNQzlGKikIkjDxra-27" value="Monitoring (Prometheus)" style="rounded=0;whiteSpace=wrap;html=1;" vertex="1" parent="1">
          <mxGeometry x="150" y="1040" width="120" height="60" as="geometry" />
        </mxCell>
        <mxCell id="DCITLNQzlGKikIkjDxra-28" value="Logging" style="rounded=0;whiteSpace=wrap;html=1;" vertex="1" parent="1">
          <mxGeometry x="350" y="1040" width="120" height="60" as="geometry" />
        </mxCell>
        <mxCell id="DCITLNQzlGKikIkjDxra-30" value="&lt;div&gt;Admin Panel&lt;/div&gt;" style="rounded=0;whiteSpace=wrap;html=1;" vertex="1" parent="1">
          <mxGeometry x="-280" y="440" width="120" height="60" as="geometry" />
        </mxCell>
        <mxCell id="DCITLNQzlGKikIkjDxra-37" style="edgeStyle=orthogonalEdgeStyle;rounded=0;orthogonalLoop=1;jettySize=auto;html=1;entryX=1;entryY=0.5;entryDx=0;entryDy=0;" edge="1" parent="1" source="DCITLNQzlGKikIkjDxra-34" target="DCITLNQzlGKikIkjDxra-35">
          <mxGeometry relative="1" as="geometry" />
        </mxCell>
        <mxCell id="DCITLNQzlGKikIkjDxra-38" style="edgeStyle=orthogonalEdgeStyle;rounded=0;orthogonalLoop=1;jettySize=auto;html=1;entryX=0;entryY=0.5;entryDx=0;entryDy=0;" edge="1" parent="1" source="DCITLNQzlGKikIkjDxra-34" target="DCITLNQzlGKikIkjDxra-36">
          <mxGeometry relative="1" as="geometry" />
        </mxCell>
        <mxCell id="DCITLNQzlGKikIkjDxra-34" value="CQRS" style="text;html=1;align=center;verticalAlign=middle;whiteSpace=wrap;rounded=0;" vertex="1" parent="1">
          <mxGeometry x="190" y="740" width="230" height="30" as="geometry" />
        </mxCell>
        <mxCell id="DCITLNQzlGKikIkjDxra-35" value="Read" style="text;html=1;align=center;verticalAlign=middle;whiteSpace=wrap;rounded=0;" vertex="1" parent="1">
          <mxGeometry x="140" y="780" width="60" height="30" as="geometry" />
        </mxCell>
        <mxCell id="DCITLNQzlGKikIkjDxra-36" value="Write" style="text;html=1;align=center;verticalAlign=middle;whiteSpace=wrap;rounded=0;" vertex="1" parent="1">
          <mxGeometry x="400" y="780" width="60" height="30" as="geometry" />
        </mxCell>
        <mxCell id="DCITLNQzlGKikIkjDxra-43" style="edgeStyle=orthogonalEdgeStyle;rounded=0;orthogonalLoop=1;jettySize=auto;html=1;entryX=1;entryY=0.5;entryDx=0;entryDy=0;" edge="1" parent="1" source="DCITLNQzlGKikIkjDxra-42" target="DCITLNQzlGKikIkjDxra-23">
          <mxGeometry relative="1" as="geometry">
            <Array as="points">
              <mxPoint x="660" y="940" />
              <mxPoint x="660" y="670" />
            </Array>
          </mxGeometry>
        </mxCell>
        <mxCell id="DCITLNQzlGKikIkjDxra-42" value="Реплика - Request DB (Write)&amp;nbsp;" style="rounded=0;whiteSpace=wrap;html=1;" vertex="1" parent="1">
          <mxGeometry x="370" y="910" width="120" height="60" as="geometry" />
        </mxCell>
      </root>
    </mxGraphModel>
  </diagram>
</mxfile>
